<svg width="296" height="296" viewBox="0 0 296 296" fill="none" xmlns="http://www.w3.org/2000/svg">
<circle cx="148" cy="148" r="148" fill="#C9C9C9"/>
<path d="M71.9841 231.732C70.4829 231.732 69.1494 231.4 67.9838 230.738C66.8181 230.077 65.9616 229.128 65.4141 227.894L67.6924 226.766C68.0279 227.535 68.5666 228.126 69.3084 228.538C70.0502 228.949 70.9421 229.155 71.9841 229.155C72.6729 229.155 73.2911 229.057 73.8386 228.86C74.386 228.645 74.8188 228.332 75.1367 227.92C75.4722 227.491 75.64 226.981 75.64 226.391C75.64 225.729 75.4634 225.227 75.1102 224.888C74.7569 224.53 74.2801 224.27 73.6796 224.109C73.0968 223.931 72.4521 223.778 71.7457 223.653C71.0745 223.51 70.3857 223.34 69.6793 223.143C68.9905 222.928 68.3459 222.633 67.7454 222.257C67.1449 221.882 66.6592 221.389 66.2883 220.781C65.9351 220.155 65.7585 219.368 65.7585 218.419C65.7585 217.417 66.0234 216.523 66.5532 215.736C67.1007 214.948 67.8248 214.331 68.7256 213.884C69.644 213.418 70.6683 213.186 71.7987 213.186C73.1586 213.186 74.3949 213.508 75.5076 214.152C76.6202 214.779 77.4415 215.709 77.9713 216.943L75.7195 218.124C75.3839 217.373 74.8717 216.791 74.1829 216.38C73.4942 215.95 72.664 215.736 71.6927 215.736C71.0922 215.736 70.5447 215.852 70.0502 216.084C69.5733 216.299 69.1848 216.604 68.8845 216.997C68.5843 217.373 68.4342 217.82 68.4342 218.339C68.4342 218.983 68.6196 219.484 68.9905 219.842C69.3614 220.182 69.8471 220.45 70.4476 220.647C71.0657 220.826 71.7368 220.987 72.461 221.13C73.1321 221.274 73.8121 221.452 74.5009 221.667C75.1896 221.864 75.8166 222.15 76.3818 222.526C76.9646 222.902 77.4326 223.402 77.7859 224.029C78.1568 224.637 78.3422 225.415 78.3422 226.364C78.3422 227.42 78.0597 228.35 77.4945 229.155C76.9293 229.942 76.161 230.568 75.1896 231.034C74.2359 231.499 73.1674 231.732 71.9841 231.732ZM87.4482 231.732C86.1413 231.732 84.9668 231.436 83.9248 230.846C82.8827 230.238 82.0615 229.414 81.461 228.377C80.8606 227.321 80.5603 226.122 80.5603 224.78C80.5603 223.528 80.8341 222.382 81.3816 221.345C81.929 220.289 82.6973 219.457 83.6864 218.849C84.6754 218.222 85.8234 217.91 87.1303 217.91C88.4373 217.91 89.5588 218.205 90.4948 218.795C91.4486 219.368 92.1815 220.155 92.6937 221.157C93.2235 222.141 93.4884 223.241 93.4884 224.458V225.532H82.6002L83.077 224.458C83.0241 225.388 83.1742 226.22 83.5274 226.954C83.8807 227.688 84.3928 228.278 85.064 228.726C85.7351 229.155 86.521 229.37 87.4218 229.37C88.2342 229.37 88.9671 229.191 89.6206 228.833C90.2918 228.475 90.8216 227.938 91.2101 227.223L93.2235 228.269C92.6583 229.397 91.8724 230.255 90.8657 230.846C89.859 231.436 88.7199 231.732 87.4482 231.732ZM83.2095 223.814H90.8657C90.8304 223.116 90.6449 222.499 90.3094 221.962C89.9915 221.425 89.55 221.014 88.9848 220.728C88.4373 220.442 87.8103 220.298 87.1038 220.298C86.3797 220.298 85.7351 220.45 85.1699 220.754C84.6224 221.059 84.1809 221.479 83.8453 222.016C83.5274 222.553 83.3155 223.152 83.2095 223.814ZM112.462 217.91C113.769 217.91 114.864 218.205 115.747 218.795C116.648 219.386 117.328 220.182 117.787 221.184C118.264 222.186 118.502 223.295 118.502 224.512V231.436H115.879V224.941C115.879 224.136 115.747 223.394 115.482 222.714C115.235 222.034 114.837 221.488 114.29 221.077C113.76 220.665 113.089 220.459 112.277 220.459C111.499 220.459 110.846 220.665 110.316 221.077C109.786 221.47 109.389 222.007 109.124 222.687C108.859 223.349 108.727 224.082 108.727 224.888V231.436H106.104V224.888C106.104 224.082 105.971 223.349 105.706 222.687C105.459 222.007 105.062 221.47 104.514 221.077C103.984 220.665 103.313 220.459 102.501 220.459C101.689 220.459 101.017 220.665 100.488 221.077C99.9754 221.488 99.5956 222.034 99.3484 222.714C99.1011 223.394 98.9775 224.136 98.9775 224.941V231.436H96.3547V224.539C96.3547 223.304 96.5755 222.186 97.0171 221.184C97.4763 220.182 98.1474 219.386 99.0305 218.795C99.9312 218.205 101.026 217.91 102.315 217.91C103.411 217.91 104.355 218.124 105.15 218.554C105.963 218.983 106.59 219.574 107.031 220.325C107.49 221.077 107.729 221.945 107.746 222.928H107.164C107.199 221.945 107.437 221.077 107.879 220.325C108.338 219.574 108.956 218.983 109.733 218.554C110.528 218.124 111.438 217.91 112.462 217.91ZM129.806 218.285H132.429V231.436H129.806V218.285ZM131.104 215.682C130.804 215.682 130.522 215.611 130.257 215.467C129.992 215.306 129.78 215.091 129.621 214.823C129.462 214.555 129.382 214.259 129.382 213.937C129.382 213.615 129.462 213.32 129.621 213.052C129.78 212.783 129.992 212.569 130.257 212.408C130.522 212.247 130.804 212.166 131.104 212.166C131.422 212.166 131.705 212.247 131.952 212.408C132.217 212.569 132.42 212.783 132.561 213.052C132.72 213.32 132.8 213.615 132.8 213.937C132.8 214.259 132.72 214.555 132.561 214.823C132.42 215.091 132.217 215.306 131.952 215.467C131.705 215.611 131.422 215.682 131.104 215.682ZM152.544 217.91C153.851 217.91 154.946 218.205 155.829 218.795C156.73 219.386 157.409 220.182 157.869 221.184C158.346 222.186 158.584 223.295 158.584 224.512V231.436H155.961V224.941C155.961 224.136 155.829 223.394 155.564 222.714C155.316 222.034 154.919 221.488 154.372 221.077C153.842 220.665 153.171 220.459 152.358 220.459C151.581 220.459 150.928 220.665 150.398 221.077C149.868 221.47 149.471 222.007 149.206 222.687C148.941 223.349 148.808 224.082 148.808 224.888V231.436H146.186V224.888C146.186 224.082 146.053 223.349 145.788 222.687C145.541 222.007 145.143 221.47 144.596 221.077C144.066 220.665 143.395 220.459 142.583 220.459C141.771 220.459 141.099 220.665 140.569 221.077C140.057 221.488 139.678 222.034 139.43 222.714C139.183 223.394 139.059 224.136 139.059 224.941V231.436H136.437V224.539C136.437 223.304 136.658 222.186 137.099 221.184C137.558 220.182 138.229 219.386 139.112 218.795C140.013 218.205 141.108 217.91 142.397 217.91C143.493 217.91 144.437 218.124 145.232 218.554C146.044 218.983 146.672 219.574 147.113 220.325C147.572 221.077 147.811 221.945 147.828 222.928H147.245C147.281 221.945 147.519 221.077 147.961 220.325C148.42 219.574 149.038 218.983 149.815 218.554C150.61 218.124 151.52 217.91 152.544 217.91ZM167.764 231.758C166.511 231.758 165.389 231.445 164.4 230.819C163.429 230.193 162.66 229.361 162.095 228.323C161.53 227.267 161.247 226.105 161.247 224.834C161.247 223.582 161.548 222.436 162.148 221.399C162.766 220.343 163.597 219.511 164.638 218.903C165.68 218.276 166.855 217.963 168.162 217.963C169.469 217.963 170.643 218.268 171.685 218.876C172.727 219.466 173.549 220.281 174.149 221.318C174.767 222.356 175.076 223.528 175.076 224.834V231.436H172.586V226.525L173.487 225.827C173.487 226.937 173.24 227.938 172.745 228.833C172.268 229.728 171.597 230.443 170.731 230.98C169.884 231.499 168.895 231.758 167.764 231.758ZM168.162 229.236C168.974 229.236 169.707 229.038 170.36 228.645C171.014 228.252 171.526 227.723 171.897 227.062C172.268 226.381 172.453 225.648 172.453 224.861C172.453 224.056 172.268 223.322 171.897 222.66C171.526 221.998 171.014 221.47 170.36 221.077C169.707 220.665 168.974 220.459 168.162 220.459C167.349 220.459 166.617 220.665 165.963 221.077C165.327 221.47 164.815 221.998 164.426 222.66C164.055 223.322 163.87 224.056 163.87 224.861C163.87 225.648 164.055 226.381 164.426 227.062C164.815 227.723 165.327 228.252 165.963 228.645C166.617 229.038 167.349 229.236 168.162 229.236ZM184.423 237.797C183.028 237.797 181.774 237.493 180.661 236.885C179.548 236.276 178.692 235.391 178.091 234.228L180.29 233.02C180.661 233.735 181.2 234.299 181.906 234.711C182.613 235.14 183.434 235.355 184.37 235.355C185.289 235.355 186.084 235.14 186.754 234.711C187.443 234.299 187.982 233.708 188.37 232.939C188.759 232.188 188.953 231.302 188.953 230.282V227.518L189.615 226.901C189.615 227.688 189.403 228.448 188.98 229.182C188.574 229.897 187.973 230.488 187.178 230.953C186.401 231.4 185.456 231.624 184.343 231.624C183.125 231.624 182.012 231.329 181.005 230.738C180.017 230.13 179.222 229.316 178.621 228.296C178.038 227.259 177.747 226.095 177.747 224.807C177.747 223.555 178.047 222.409 178.648 221.372C179.266 220.334 180.096 219.511 181.138 218.903C182.18 218.276 183.355 217.963 184.661 217.963C185.968 217.963 187.143 218.268 188.185 218.876C189.227 219.466 190.048 220.281 190.649 221.318C191.267 222.356 191.576 223.528 191.576 224.834V230.255C191.576 231.776 191.267 233.1 190.649 234.228C190.031 235.372 189.183 236.25 188.105 236.858C187.028 237.484 185.8 237.797 184.423 237.797ZM184.635 229.128C185.43 229.128 186.154 228.94 186.807 228.565C187.461 228.171 187.973 227.643 188.344 226.981C188.733 226.301 188.927 225.568 188.927 224.78C188.927 223.975 188.733 223.25 188.344 222.606C187.973 221.945 187.461 221.425 186.807 221.05C186.154 220.674 185.43 220.486 184.635 220.486C183.84 220.486 183.116 220.674 182.462 221.05C181.827 221.425 181.315 221.945 180.926 222.606C180.538 223.25 180.343 223.975 180.343 224.78C180.343 225.568 180.538 226.301 180.926 226.981C181.315 227.643 181.827 228.171 182.462 228.565C183.116 228.94 183.84 229.128 184.635 229.128ZM201.135 231.732C199.827 231.732 198.653 231.436 197.611 230.846C196.569 230.238 195.748 229.414 195.147 228.377C194.547 227.321 194.247 226.122 194.247 224.78C194.247 223.528 194.521 222.382 195.068 221.345C195.615 220.289 196.383 219.457 197.373 218.849C198.362 218.222 199.509 217.91 200.817 217.91C202.124 217.91 203.245 218.205 204.181 218.795C205.135 219.368 205.868 220.155 206.38 221.157C206.91 222.141 207.175 223.241 207.175 224.458V225.532H196.286L196.763 224.458C196.71 225.388 196.86 226.22 197.214 226.954C197.567 227.688 198.079 228.278 198.75 228.726C199.422 229.155 200.207 229.37 201.108 229.37C201.92 229.37 202.654 229.191 203.307 228.833C203.978 228.475 204.508 227.938 204.896 227.223L206.91 228.269C206.344 229.397 205.559 230.255 204.552 230.846C203.545 231.436 202.406 231.732 201.135 231.732ZM196.896 223.814H204.552C204.516 223.116 204.331 222.499 203.996 221.962C203.678 221.425 203.236 221.014 202.671 220.728C202.124 220.442 201.496 220.298 200.79 220.298C200.066 220.298 199.422 220.45 198.856 220.754C198.309 221.059 197.867 221.479 197.532 222.016C197.214 222.553 197.002 223.152 196.896 223.814ZM226.149 217.91C227.455 217.91 228.55 218.205 229.434 218.795C230.334 219.386 231.014 220.182 231.474 221.184C231.95 222.186 232.189 223.295 232.189 224.512V231.436H229.566V224.941C229.566 224.136 229.434 223.394 229.169 222.714C228.921 222.034 228.524 221.488 227.977 221.077C227.447 220.665 226.775 220.459 225.963 220.459C225.186 220.459 224.533 220.665 224.003 221.077C223.473 221.47 223.076 222.007 222.811 222.687C222.546 223.349 222.413 224.082 222.413 224.888V231.436H219.791V224.888C219.791 224.082 219.658 223.349 219.393 222.687C219.146 222.007 218.748 221.47 218.201 221.077C217.671 220.665 217 220.459 216.188 220.459C215.375 220.459 214.704 220.665 214.174 221.077C213.662 221.488 213.282 222.034 213.035 222.714C212.788 223.394 212.664 224.136 212.664 224.941V231.436H210.041V224.539C210.041 223.304 210.262 222.186 210.704 221.184C211.162 220.182 211.834 219.386 212.717 218.795C213.618 218.205 214.712 217.91 216.002 217.91C217.097 217.91 218.042 218.124 218.837 218.554C219.649 218.983 220.276 219.574 220.718 220.325C221.176 221.077 221.415 221.945 221.433 222.928H220.85C220.885 221.945 221.123 221.077 221.565 220.325C222.024 219.574 222.643 218.983 223.42 218.554C224.215 218.124 225.124 217.91 226.149 217.91Z" fill="#343D43"/>
<path d="M94.709 80.4731C95.6026 77.8018 98.1116 76 100.938 76H189.787C192.695 76 195.256 77.9056 196.082 80.6834L200.248 94.6922C200.386 95.158 200.036 95.6255 199.548 95.6255H90.6519C90.1541 95.6255 89.8024 95.1395 89.9599 94.6688L94.709 80.4731Z" fill="#F6F5F4"/>
<path d="M106.418 89.0845C108.03 89.0845 109.336 87.7828 109.336 86.177C109.336 84.5713 108.03 83.2695 106.418 83.2695C104.806 83.2695 103.5 84.5713 103.5 86.177C103.5 87.7828 104.806 89.0845 106.418 89.0845Z" fill="#343D43"/>
<path d="M64.8359 109.436C64.8359 101.006 71.6948 94.1719 80.1556 94.1719H215.115C223.575 94.1719 230.434 101.006 230.434 109.436V167.586C230.434 182.44 218.35 194.48 203.442 194.48H91.8277C76.9206 194.48 64.8359 182.44 64.8359 167.586V109.436Z" fill="#343D43"/>
<path fill-rule="evenodd" clip-rule="evenodd" d="M148.952 176.408C168.225 176.408 183.847 161.221 183.847 142.487C183.847 123.753 168.225 108.566 148.952 108.566C129.681 108.566 114.058 123.753 114.058 142.487C114.058 161.221 129.681 176.408 148.952 176.408ZM137.78 116.299C141.322 114.873 145.118 114.139 148.952 114.139C149.154 114.139 149.317 113.976 149.317 113.776C149.317 113.575 149.154 113.412 148.952 113.412C145.025 113.412 141.135 114.164 137.506 115.625C133.878 117.087 130.58 119.228 127.803 121.928C125.026 124.628 122.822 127.833 121.319 131.361C119.816 134.888 119.043 138.669 119.043 142.487C119.043 142.688 119.206 142.851 119.407 142.851C119.609 142.851 119.772 142.688 119.772 142.487C119.772 138.767 120.526 135.083 121.991 131.645C123.456 128.207 125.604 125.082 128.312 122.448C131.021 119.815 134.238 117.725 137.78 116.299Z" fill="#B1B1B1" fill-opacity="0.99"/>
<path d="M192.099 143.281C192.099 166.243 172.757 184.932 148.802 184.932C124.847 184.932 105.505 166.243 105.505 143.281C105.505 120.32 124.847 101.631 148.802 101.631C172.757 101.631 192.099 120.32 192.099 143.281Z" stroke="#F6F5F4" stroke-width="5"/>
<path d="M207.09 123.247C210.716 123.247 213.656 120.481 213.656 117.069C213.656 113.657 210.716 110.891 207.09 110.891C203.464 110.891 200.524 113.657 200.524 117.069C200.524 120.481 203.464 123.247 207.09 123.247Z" fill="#B0B0B0"/>
<path d="M70.624 98.2266L222.452 187.437" stroke="#F6F5F4" stroke-width="8" stroke-linecap="round"/>
</svg>
