<svg width="103" height="103" viewBox="0 0 103 103" fill="none" xmlns="http://www.w3.org/2000/svg">
<path d="M72.8778 19.6384L71.928 18.4775L72.8778 19.6384ZM69.6213 18.2895L68.1287 18.4388L69.6213 18.2895ZM70.4191 20.9688L70.9932 19.583L70.4191 20.9688ZM81.7082 14.7406L82.7688 13.6799L81.7082 14.7406ZM79.0275 14.6069L79.9773 15.7678L79.0275 14.6069ZM80.4109 13.809L80.4857 12.3109L80.4109 13.809ZM88.3921 23.9715L87.2311 23.0216L88.3921 23.9715ZM88.2584 21.2908L87.1977 22.3515L88.2584 21.2908ZM89.1899 22.588L90.6881 22.5133L89.1899 22.588ZM84.7093 33.3779L84.8585 31.8853L84.7093 33.3779ZM83.3604 30.1213L84.5213 31.0712L83.3604 30.1213ZM82.03 32.58L80.6442 33.1541L82.03 32.58ZM92.6172 34.1687L92.468 35.6612L92.6172 34.1687ZM94.1597 34.5828L93.0475 35.5893L94.1597 34.5828ZM92.6172 47.4122L92.468 45.9197L92.6172 47.4122ZM94.1597 46.9982L93.0475 45.9916L94.1597 46.9982ZM83.3628 51.4593L82.2019 52.4092L83.3628 51.4593ZM84.7117 48.2028L84.861 49.6953L84.7117 48.2028ZM82.0324 49.0006L80.6466 48.4266L82.0324 49.0006ZM88.3935 57.608L89.5544 56.6581L88.3935 57.608ZM89.1914 58.9914L87.6932 58.9167L89.1914 58.9914ZM79.0289 66.9726L78.0791 68.1335L79.0289 66.9726ZM80.4124 67.7704L80.3377 66.2723L80.4124 67.7704ZM69.6215 63.289L68.129 63.1397L69.6215 63.289ZM72.8781 61.94L73.8279 60.7791L72.8781 61.94ZM70.4194 60.6097L69.8453 59.2238L70.4194 60.6097ZM68.8306 71.1978L70.3232 71.347L68.8306 71.1978ZM68.4166 72.7402L67.41 71.628L68.4166 72.7402ZM55.5871 71.1978L54.0945 71.347L55.5871 71.1978ZM56.0012 72.7402L54.9947 73.8524L56.0012 72.7402ZM51.5398 61.9419L52.4897 63.1029L51.5398 61.9419ZM54.7964 63.2908L56.289 63.1416L54.7964 63.2908ZM53.9985 60.6116L53.4245 61.9974L53.9985 60.6116ZM42.7089 66.8403L43.7695 65.7797L42.7089 66.8403ZM45.3895 66.974L44.4397 65.8131L45.3895 66.974ZM44.0061 67.7719L43.9313 69.27L44.0061 67.7719ZM36.0249 57.6094L34.864 56.6596L36.0249 57.6094ZM36.1586 60.2901L35.098 61.3508L36.1586 60.2901ZM35.2271 58.9929L36.7252 58.9182L35.2271 58.9929ZM39.7079 48.2028L39.8572 46.7102L39.7079 48.2028ZM41.0568 51.4593L42.2178 52.4092L41.0568 51.4593ZM42.3872 49.0006L41.0014 49.5746L42.3872 49.0006ZM30.0015 45.4222L28.5015 45.4222L30.0015 45.4222ZM31.8025 47.4122L31.6532 48.9048L31.8025 47.4122ZM30.26 46.9981L31.3722 45.9916L30.26 46.9981ZM31.8025 34.1687L31.6532 32.6761L31.8025 34.1687ZM30.0015 36.1588L31.5015 36.1588L30.0015 36.1588ZM30.26 34.5828L31.3722 35.5893L30.26 34.5828ZM41.0593 30.1213L42.2202 29.1715L41.0593 30.1213ZM39.7104 33.3779L39.8596 34.8705L39.7104 33.3779ZM42.3897 32.58L41.0038 32.006L42.3897 32.58ZM36.1601 21.2893L35.0994 20.2287L36.1601 21.2893ZM36.0264 23.97L34.8654 24.9199L36.0264 23.97ZM35.2285 22.5866L33.7304 22.5118L35.2285 22.5866ZM45.391 14.6054L44.4411 15.7664L45.391 14.6054ZM42.7103 14.7391L43.771 15.7998L42.7103 14.7391ZM54.7966 18.2876L56.2892 18.4369L54.7966 18.2876ZM51.5401 19.6365L52.4899 18.4756L51.5401 19.6365ZM53.9988 20.9669L54.5728 22.3527L53.9988 20.9669ZM68.8306 10.383L70.3232 10.2338L68.8306 10.383ZM68.4166 8.84058L69.4231 7.7284L68.4166 8.84058ZM55.5871 10.383L54.0945 10.2338L55.5871 10.383ZM56.0012 8.84058L54.9947 7.7284L56.0012 8.84058ZM57.5772 10.082H66.8406V7.08203H57.5772V10.082ZM56.2892 18.4369L57.0796 10.5323L54.0945 10.2338L53.3041 18.1383L56.2892 18.4369ZM44.4411 15.7664L50.5902 20.7974L52.4899 18.4756L46.3408 13.4445L44.4411 15.7664ZM37.2207 22.35L43.771 15.7998L41.6496 13.6785L35.0994 20.2287L37.2207 22.35ZM42.2202 29.1715L37.1873 23.0202L34.8654 24.9199L39.8983 31.0712L42.2202 29.1715ZM31.9517 35.6612L39.8596 34.8705L39.5611 31.8853L31.6532 32.6761L31.9517 35.6612ZM31.5015 45.4222L31.5015 36.1588L28.5015 36.1588L28.5015 45.4222L31.5015 45.4222ZM39.8572 46.7102L31.9517 45.9197L31.6532 48.9048L39.5587 49.6953L39.8572 46.7102ZM37.1859 58.5593L42.2178 52.4092L39.8959 50.5095L34.864 56.6596L37.1859 58.5593ZM43.7695 65.7797L37.2193 59.2294L35.098 61.3508L41.6482 67.901L43.7695 65.7797ZM50.59 60.781L44.4397 65.8131L46.3394 68.1349L52.4897 63.1029L50.59 60.781ZM57.0796 71.0485L56.289 63.1416L53.3038 63.4401L54.0945 71.347L57.0796 71.0485ZM66.8406 71.4988H57.5772V74.4988H66.8406V71.4988ZM68.129 63.1397L67.3381 71.0485L70.3232 71.347L71.1141 63.4382L68.129 63.1397ZM79.9788 65.8116L73.8279 60.7791L71.9282 63.101L78.0791 68.1335L79.9788 65.8116ZM87.1992 59.228L80.6489 65.7782L82.7703 67.8995L89.3205 61.3493L87.1992 59.228ZM82.2019 52.4092L87.2326 58.5578L89.5544 56.6581L84.5238 50.5095L82.2019 52.4092ZM92.468 45.9197L84.5625 46.7102L84.861 49.6953L92.7665 48.9048L92.468 45.9197ZM92.9182 36.1588V45.4222H95.9182V36.1588H92.9182ZM84.56 34.8704L92.468 35.6612L92.7665 32.6761L84.8585 31.8853L84.56 34.8704ZM87.2311 23.0216L82.1994 29.1715L84.5213 31.0712L89.553 24.9213L87.2311 23.0216ZM80.6475 15.8012L87.1977 22.3515L89.319 20.2301L82.7688 13.6799L80.6475 15.8012ZM73.8277 20.7993L79.9773 15.7678L78.0776 13.4459L71.928 18.4775L73.8277 20.7993ZM67.3381 10.5323L68.1287 18.4388L71.1138 18.1402L70.3232 10.2338L67.3381 10.5323ZM71.928 18.4775C71.2532 19.0295 70.8782 19.3312 70.6095 19.4919C70.3426 19.6515 70.5941 19.4177 70.9932 19.583L69.8451 22.3546C70.7969 22.7489 71.6425 22.3697 72.1491 22.0667C72.6539 21.7648 73.2318 21.2869 73.8277 20.7993L71.928 18.4775ZM68.1287 18.4388C68.2053 19.2048 68.276 19.9514 68.4195 20.5218C68.5635 21.0943 68.8933 21.9603 69.8451 22.3546L70.9932 19.583C71.3922 19.7483 71.4047 20.0914 71.3288 19.7899C71.2524 19.4863 71.2006 19.0077 71.1138 18.1402L68.1287 18.4388ZM82.7688 13.6799C82.493 13.4042 82.1866 13.0936 81.8922 12.8664C81.5638 12.613 81.1016 12.3416 80.4857 12.3109L80.3362 15.3071C80.2349 15.3021 80.1466 15.2767 80.0841 15.2491C80.0318 15.226 80.02 15.211 80.0594 15.2414C80.0998 15.2726 80.164 15.3278 80.2685 15.4273C80.3726 15.5265 80.4916 15.6454 80.6475 15.8012L82.7688 13.6799ZM79.9773 15.7678C80.1479 15.6282 80.2782 15.5218 80.3917 15.4335C80.5055 15.3449 80.5749 15.2963 80.6182 15.2693C80.6604 15.243 80.6472 15.2567 80.5928 15.2745C80.528 15.2957 80.4375 15.3122 80.3362 15.3071L80.4857 12.3109C79.8697 12.2802 79.3828 12.5042 79.0309 12.7237C78.7153 12.9204 78.3795 13.199 78.0776 13.4459L79.9773 15.7678ZM89.553 24.9213C89.8 24.6195 90.0785 24.2836 90.2753 23.9681C90.4947 23.6162 90.7188 23.1292 90.6881 22.5133L87.6918 22.6627C87.6868 22.5614 87.7032 22.471 87.7244 22.4061C87.7423 22.3517 87.756 22.3385 87.7296 22.3807C87.7026 22.4241 87.6541 22.4934 87.5655 22.6073C87.4772 22.7207 87.3707 22.851 87.2311 23.0216L89.553 24.9213ZM87.1977 22.3515C87.3536 22.5073 87.4725 22.6264 87.5716 22.7305C87.6711 22.8349 87.7263 22.8991 87.7575 22.9396C87.7879 22.979 87.773 22.9672 87.7498 22.9148C87.7222 22.8524 87.6969 22.764 87.6918 22.6627L90.6881 22.5133C90.6574 21.8974 90.386 21.4351 90.1326 21.1068C89.9054 20.8124 89.5948 20.5059 89.319 20.2301L87.1977 22.3515ZM84.8585 31.8853C83.9911 31.7986 83.5125 31.7467 83.2089 31.6703C82.9074 31.5945 83.2505 31.607 83.4158 32.006L80.6442 33.1541C81.0384 34.1059 81.9044 34.4357 82.477 34.5797C83.0474 34.7232 83.794 34.7938 84.56 34.8704L84.8585 31.8853ZM82.1994 29.1715C81.7119 29.7673 81.2339 30.3452 80.9321 30.85C80.6291 31.3567 80.2499 32.2022 80.6442 33.1541L83.4158 32.006C83.5811 32.4051 83.3473 32.6565 83.5068 32.3897C83.6675 32.121 83.9692 31.7459 84.5213 31.0712L82.1994 29.1715ZM95.9182 36.1588C95.9182 35.7688 95.9211 35.3324 95.8736 34.9636C95.8206 34.5523 95.6856 34.0335 95.2718 33.5763L93.0475 35.5893C92.9794 35.5141 92.9349 35.4337 92.9103 35.37C92.8896 35.3166 92.8918 35.2977 92.8982 35.3471C92.9047 35.3977 92.9111 35.4821 92.9146 35.6263C92.9181 35.7701 92.9182 35.9383 92.9182 36.1588H95.9182ZM92.468 35.6612C92.6873 35.6832 92.8547 35.7 92.9974 35.7178C93.1405 35.7356 93.2239 35.7504 93.2736 35.7619C93.3221 35.7732 93.3031 35.7735 93.252 35.7476C93.1911 35.7168 93.1155 35.6645 93.0475 35.5893L95.2718 33.5763C94.858 33.119 94.3553 32.9331 93.9513 32.8395C93.589 32.7555 93.1545 32.7149 92.7665 32.6761L92.468 35.6612ZM92.7665 48.9048C93.1545 48.866 93.589 48.8255 93.9513 48.7415C94.3553 48.6478 94.858 48.4619 95.2718 48.0047L93.0475 45.9916C93.1155 45.9164 93.1911 45.8641 93.252 45.8333C93.3031 45.8074 93.3221 45.8078 93.2736 45.819C93.2239 45.8305 93.1405 45.8453 92.9974 45.8631C92.8547 45.8809 92.6873 45.8977 92.468 45.9197L92.7665 48.9048ZM92.9182 45.4222C92.9182 45.6426 92.9181 45.8109 92.9146 45.9546C92.9111 46.0988 92.9047 46.1832 92.8982 46.2339C92.8918 46.2832 92.8896 46.2643 92.9103 46.2109C92.9349 46.1473 92.9794 46.0669 93.0475 45.9916L95.2718 48.0047C95.6856 47.5474 95.8206 47.0286 95.8736 46.6173C95.9211 46.2485 95.9182 45.8122 95.9182 45.4222H92.9182ZM84.5238 50.5095C83.9717 49.8347 83.67 49.4597 83.5093 49.191C83.3497 48.9241 83.5835 49.1756 83.4183 49.5747L80.6466 48.4266C80.2524 49.3785 80.6316 50.224 80.9345 50.7306C81.2364 51.2354 81.7144 51.8133 82.2019 52.4092L84.5238 50.5095ZM84.5625 46.7102C83.7964 46.7868 83.0498 46.8575 82.4794 47.001C81.9069 47.145 81.0409 47.4748 80.6466 48.4266L83.4183 49.5747C83.253 49.9737 82.9098 49.9862 83.2113 49.9103C83.515 49.8339 83.9935 49.7821 84.861 49.6953L84.5625 46.7102ZM89.3205 61.3493C89.5962 61.0735 89.9068 60.7671 90.134 60.4726C90.3874 60.1443 90.6588 59.6821 90.6895 59.0661L87.6932 58.9167C87.6983 58.8154 87.7237 58.7271 87.7513 58.6646C87.7744 58.6123 87.7894 58.6005 87.759 58.6399C87.7277 58.6803 87.6726 58.7445 87.5731 58.849C87.4739 58.9531 87.355 59.0721 87.1992 59.228L89.3205 61.3493ZM87.2326 58.5578C87.3721 58.7284 87.4786 58.8587 87.5669 58.9722C87.6555 59.086 87.7041 59.1554 87.7311 59.1987C87.7574 59.2409 87.7437 59.2277 87.7259 59.1733C87.7046 59.1084 87.6882 59.018 87.6932 58.9167L90.6895 59.0661C90.7202 58.4502 90.4962 57.9633 90.2767 57.6114C90.08 57.2958 89.8014 56.9599 89.5544 56.6581L87.2326 58.5578ZM78.0791 68.1335C78.3809 68.3805 78.7168 68.659 79.0323 68.8558C79.3842 69.0752 79.8712 69.2993 80.4871 69.2686L80.3377 66.2723C80.439 66.2672 80.5294 66.2837 80.5943 66.3049C80.6487 66.3227 80.6619 66.3365 80.6197 66.3101C80.5763 66.2831 80.507 66.2346 80.3931 66.146C80.2797 66.0577 80.1494 65.9512 79.9788 65.8116L78.0791 68.1335ZM80.6489 65.7782C80.4931 65.934 80.374 66.053 80.2699 66.1521C80.1655 66.2516 80.1013 66.3068 80.0608 66.338C80.0214 66.3684 80.0332 66.3534 80.0856 66.3303C80.148 66.3027 80.2364 66.2773 80.3377 66.2723L80.4871 69.2686C81.103 69.2378 81.5653 68.9664 81.8936 68.7131C82.188 68.4859 82.4945 68.1753 82.7703 67.8995L80.6489 65.7782ZM71.1141 63.4382C71.2008 62.5707 71.2527 62.0922 71.3291 61.7886C71.4049 61.4871 71.3924 61.8302 70.9934 61.9955L69.8453 59.2238C68.8935 59.6181 68.5637 60.4841 68.4197 61.0566C68.2762 61.627 68.2056 62.3736 68.129 63.1397L71.1141 63.4382ZM73.8279 60.7791C73.2321 60.2916 72.6542 59.8136 72.1494 59.5118C71.6427 59.2088 70.7972 58.8296 69.8453 59.2238L70.9934 61.9955C70.5944 62.1608 70.3429 61.927 70.6097 62.0865C70.8784 62.2472 71.2535 62.5489 71.9282 63.101L73.8279 60.7791ZM66.8406 74.4988C67.2306 74.4988 67.6669 74.5017 68.0357 74.4541C68.447 74.4011 68.9658 74.2662 69.4231 73.8524L67.41 71.628C67.4853 71.56 67.5657 71.5155 67.6293 71.4908C67.6827 71.4702 67.7016 71.4724 67.6523 71.4788C67.6016 71.4853 67.5172 71.4917 67.373 71.4952C67.2293 71.4987 67.061 71.4988 66.8406 71.4988V74.4988ZM67.3381 71.0485C67.3161 71.2678 67.2993 71.4353 67.2815 71.5779C67.2637 71.7211 67.2489 71.8044 67.2374 71.8542C67.2262 71.9027 67.2258 71.8836 67.2517 71.8326C67.2825 71.7717 67.3348 71.6961 67.41 71.628L69.4231 73.8524C69.8803 73.4386 70.0662 72.9358 70.1599 72.5318C70.2439 72.1696 70.2844 71.7351 70.3232 71.347L67.3381 71.0485ZM54.0945 71.347C54.1333 71.7351 54.1739 72.1696 54.2579 72.5318C54.3515 72.9358 54.5374 73.4386 54.9947 73.8524L57.0077 71.628C57.0829 71.6961 57.1352 71.7717 57.166 71.8326C57.1919 71.8836 57.1916 71.9027 57.1803 71.8542C57.1688 71.8044 57.154 71.7211 57.1362 71.5779C57.1184 71.4353 57.1016 71.2678 57.0796 71.0485L54.0945 71.347ZM57.5772 71.4988C57.3567 71.4988 57.1885 71.4987 57.0447 71.4952C56.9005 71.4917 56.8161 71.4853 56.7655 71.4788C56.7161 71.4724 56.735 71.4702 56.7884 71.4908C56.8521 71.5155 56.9325 71.56 57.0077 71.628L54.9947 73.8524C55.4519 74.2662 55.9707 74.4011 56.382 74.4541C56.7508 74.5017 57.1872 74.4988 57.5772 74.4988V71.4988ZM52.4897 63.1029C53.1644 62.5508 53.5395 62.2491 53.8082 62.0884C54.075 61.9289 53.8236 62.1627 53.4245 61.9974L54.5726 59.2257C53.6207 58.8315 52.7752 59.2107 52.2685 59.5137C51.7637 59.8155 51.1858 60.2935 50.59 60.781L52.4897 63.1029ZM56.289 63.1416C56.2123 62.3755 56.1417 61.6289 55.9982 61.0585C55.8542 60.486 55.5244 59.62 54.5726 59.2257L53.4245 61.9974C53.0255 61.8321 53.013 61.489 53.0888 61.7905C53.1652 62.0941 53.2171 62.5726 53.3038 63.4401L56.289 63.1416ZM41.6482 67.901C41.924 68.1767 42.2304 68.4873 42.5249 68.7145C42.8532 68.9679 43.3154 69.2393 43.9313 69.27L44.0808 66.2738C44.1821 66.2788 44.2704 66.3042 44.3329 66.3318C44.3852 66.3549 44.397 66.3699 44.3576 66.3395C44.3172 66.3083 44.253 66.2531 44.1485 66.1536C44.0444 66.0544 43.9254 65.9355 43.7695 65.7797L41.6482 67.901ZM44.4397 65.8131C44.2691 65.9527 44.1388 66.0591 44.0253 66.1474C43.9115 66.236 43.8421 66.2846 43.7988 66.3116C43.7566 66.3379 43.7698 66.3242 43.8242 66.3064C43.8891 66.2852 43.9795 66.2687 44.0808 66.2738L43.9313 69.27C44.5473 69.3007 45.0342 69.0767 45.3861 68.8572C45.7017 68.6605 46.0376 68.3819 46.3394 68.1349L44.4397 65.8131ZM34.864 56.6596C34.617 56.9614 34.3385 57.2973 34.1417 57.6128C33.9223 57.9647 33.6982 58.4517 33.7289 59.0676L36.7252 58.9182C36.7303 59.0195 36.7138 59.1099 36.6926 59.1748C36.6747 59.2292 36.661 59.2424 36.6874 59.2002C36.7144 59.1568 36.7629 59.0875 36.8515 58.9736C36.9398 58.8602 37.0463 58.7299 37.1859 58.5593L34.864 56.6596ZM37.2193 59.2294C37.0634 59.0736 36.9445 58.9545 36.8454 58.8504C36.7459 58.746 36.6907 58.6818 36.6595 58.6413C36.6291 58.6019 36.6441 58.6137 36.6672 58.6661C36.6948 58.7285 36.7202 58.8169 36.7252 58.9182L33.7289 59.0676C33.7596 59.6835 34.0311 60.1458 34.2844 60.4741C34.5116 60.7685 34.8222 61.075 35.098 61.3508L37.2193 59.2294ZM39.5587 49.6953C40.4261 49.7821 40.9047 49.8339 41.2083 49.9103C41.5098 49.9862 41.1667 49.9737 41.0014 49.5746L43.773 48.4266C43.3788 47.4747 42.5127 47.145 41.9402 47.001C41.3698 46.8575 40.6232 46.7868 39.8572 46.7102L39.5587 49.6953ZM42.2178 52.4092C42.7053 51.8133 43.1832 51.2354 43.4851 50.7306C43.7881 50.224 44.1673 49.3784 43.773 48.4266L41.0014 49.5746C40.8361 49.1756 41.0699 48.9241 40.9103 49.191C40.7497 49.4597 40.4479 49.8347 39.8959 50.5095L42.2178 52.4092ZM28.5015 45.4222C28.5015 45.8122 28.4986 46.2485 28.5461 46.6173C28.5991 47.0286 28.734 47.5474 29.1478 48.0047L31.3722 45.9916C31.4403 46.0669 31.4848 46.1473 31.5094 46.2109C31.5301 46.2643 31.5278 46.2832 31.5215 46.2339C31.5149 46.1832 31.5086 46.0988 31.5051 45.9546C31.5016 45.8109 31.5015 45.6426 31.5015 45.4222L28.5015 45.4222ZM31.9517 45.9197C31.7324 45.8977 31.565 45.8809 31.4223 45.8631C31.2791 45.8453 31.1958 45.8305 31.146 45.819C31.0976 45.8078 31.1166 45.8074 31.1677 45.8333C31.2286 45.8641 31.3041 45.9164 31.3722 45.9916L29.1478 48.0047C29.5616 48.4619 30.0644 48.6478 30.4684 48.7415C30.8307 48.8255 31.2651 48.866 31.6532 48.9048L31.9517 45.9197ZM31.6532 32.6761C31.2651 32.7149 30.8307 32.7555 30.4684 32.8395C30.0644 32.9331 29.5616 33.119 29.1478 33.5763L31.3722 35.5893C31.3041 35.6645 31.2286 35.7168 31.1677 35.7476C31.1166 35.7735 31.0976 35.7732 31.146 35.7619C31.1958 35.7504 31.2791 35.7356 31.4223 35.7178C31.565 35.7 31.7324 35.6832 31.9517 35.6612L31.6532 32.6761ZM31.5015 36.1588C31.5015 35.9383 31.5016 35.7701 31.5051 35.6263C31.5086 35.4821 31.5149 35.3977 31.5215 35.3471C31.5278 35.2977 31.5301 35.3166 31.5094 35.37C31.4848 35.4337 31.4403 35.5141 31.3722 35.5893L29.1478 33.5763C28.734 34.0335 28.5991 34.5523 28.5461 34.9636C28.4986 35.3324 28.5015 35.7688 28.5015 36.1588L31.5015 36.1588ZM39.8983 31.0712C40.4504 31.7459 40.7521 32.121 40.9128 32.3897C41.0724 32.6565 40.8386 32.4051 41.0038 32.006L43.7755 33.1541C44.1698 32.2022 43.7905 31.3567 43.4876 30.85C43.1857 30.3452 42.7077 29.7673 42.2202 29.1715L39.8983 31.0712ZM39.8596 34.8705C40.6257 34.7938 41.3723 34.7232 41.9427 34.5797C42.5152 34.4357 43.3812 34.1059 43.7755 33.1541L41.0038 32.006C41.1691 31.607 41.5123 31.5945 41.2108 31.6703C40.9071 31.7467 40.4286 31.7986 39.5611 31.8853L39.8596 34.8705ZM35.0994 20.2287C34.8237 20.5044 34.5131 20.8109 34.2859 21.1053C34.0325 21.4337 33.7611 21.8959 33.7304 22.5118L36.7266 22.6613C36.7216 22.7626 36.6962 22.8509 36.6686 22.9134C36.6455 22.9657 36.6305 22.9775 36.6609 22.9381C36.6921 22.8977 36.7473 22.8335 36.8468 22.729C36.946 22.6249 37.0649 22.5059 37.2207 22.35L35.0994 20.2287ZM37.1873 23.0202C37.0477 22.8496 36.9413 22.7193 36.853 22.6058C36.7644 22.492 36.7158 22.4226 36.6888 22.3793C36.6625 22.3371 36.6762 22.3503 36.694 22.4047C36.7152 22.4695 36.7317 22.56 36.7266 22.6613L33.7304 22.5118C33.6997 23.1278 33.9237 23.6147 34.1432 23.9666C34.3399 24.2822 34.6185 24.618 34.8654 24.9199L37.1873 23.0202ZM46.3408 13.4445C46.039 13.1975 45.7031 12.919 45.3876 12.7222C45.0357 12.5028 44.5487 12.2787 43.9328 12.3094L44.0822 15.3057C43.9809 15.3107 43.8905 15.2943 43.8256 15.273C43.7712 15.2552 43.758 15.2415 43.8002 15.2679C43.8436 15.2949 43.9129 15.3434 44.0268 15.432C44.1402 15.5203 44.2705 15.6268 44.4411 15.7664L46.3408 13.4445ZM43.771 15.7998C43.9268 15.6439 44.0459 15.525 44.15 15.4259C44.2544 15.3264 44.3186 15.2712 44.3591 15.24C44.3985 15.2096 44.3867 15.2245 44.3343 15.2477C44.2719 15.2753 44.1835 15.3006 44.0822 15.3057L43.9328 12.3094C43.3169 12.3401 42.8546 12.6115 42.5263 12.8649C42.2319 13.0921 41.9254 13.4027 41.6496 13.6785L43.771 15.7998ZM53.3041 18.1383C53.2173 19.0058 53.1655 19.4844 53.0891 19.788C53.0132 20.0895 53.0257 19.7464 53.4248 19.5811L54.5728 22.3527C55.5247 21.9584 55.8544 21.0924 55.9984 20.5199C56.1419 19.9495 56.2126 19.2029 56.2892 18.4369L53.3041 18.1383ZM50.5902 20.7974C51.1861 21.285 51.764 21.7629 52.2688 22.0648C52.7754 22.3678 53.621 22.747 54.5728 22.3527L53.4248 19.5811C53.8238 19.4158 54.0753 19.6496 53.8084 19.49C53.5397 19.3293 53.1647 19.0276 52.4899 18.4756L50.5902 20.7974ZM66.8406 10.082C67.061 10.082 67.2293 10.0821 67.373 10.0856C67.5172 10.0891 67.6016 10.0955 67.6523 10.102C67.7016 10.1084 67.6827 10.1106 67.6293 10.09C67.5657 10.0653 67.4853 10.0208 67.41 9.95276L69.4231 7.7284C68.9658 7.3146 68.447 7.17967 68.0357 7.12665C67.6669 7.07912 67.2306 7.08203 66.8406 7.08203V10.082ZM70.3232 10.2338C70.2844 9.84571 70.2439 9.41125 70.1599 9.04897C70.0662 8.64497 69.8803 8.1422 69.4231 7.7284L67.41 9.95276C67.3348 9.88469 67.2825 9.80912 67.2517 9.74823C67.2258 9.69717 67.2262 9.67813 67.2374 9.7266C67.2489 9.77636 67.2637 9.85971 67.2815 10.0029C67.2993 10.1455 67.3161 10.313 67.3381 10.5323L70.3232 10.2338ZM57.5772 7.08203C57.1872 7.08203 56.7508 7.07912 56.382 7.12665C55.9707 7.17967 55.4519 7.3146 54.9947 7.7284L57.0077 9.95276C56.9325 10.0208 56.8521 10.0653 56.7884 10.09C56.735 10.1106 56.7161 10.1084 56.7655 10.102C56.8161 10.0955 56.9005 10.0891 57.0447 10.0856C57.1885 10.0821 57.3567 10.082 57.5772 10.082V7.08203ZM57.0796 10.5323C57.1016 10.313 57.1184 10.1455 57.1362 10.0029C57.154 9.85971 57.1688 9.77636 57.1803 9.7266C57.1916 9.67813 57.1919 9.69717 57.166 9.74823C57.1352 9.80912 57.0829 9.88469 57.0077 9.95276L54.9947 7.7284C54.5374 8.1422 54.3515 8.64497 54.2579 9.04897C54.1739 9.41125 54.1333 9.84571 54.0945 10.2338L57.0796 10.5323Z" fill="#60872F"/>
<path d="M73.5911 55.0059C72.9074 52.1354 71.4009 49.5989 69.3051 47.7897C67.2094 45.9806 64.6416 45 62 45C59.3584 45 56.7906 45.9806 54.6949 47.7897C52.5991 49.5989 51.0926 52.1354 50.4089 55.0059" stroke="#60872F" stroke-width="3" stroke-linecap="round"/>
<circle cx="61.5" cy="33.5" r="7.5" stroke="#60872F" stroke-width="3" stroke-linecap="round"/>
</svg>
