<svg width="76" height="76" viewBox="0 0 76 76" fill="none" xmlns="http://www.w3.org/2000/svg">
<path d="M45.3793 3.80099L46.8719 3.65174L46.8719 3.65174L45.3793 3.80099ZM31.0332 2.25855L32.0397 3.37073L32.0397 3.37073L31.0332 2.25855ZM30.6191 3.80097L29.1266 3.65171L29.1191 3.72616V3.80097H30.6191ZM30.6191 3.80099L32.1117 3.95025L32.1191 3.8758V3.80099H30.6191ZM29.6708 13.284L31.1634 13.4332L31.1634 13.4332L29.6708 13.284ZM28.873 15.9632L29.447 17.3491L29.447 17.3491L28.873 15.9632ZM26.4143 14.6329L27.3641 13.4719L27.3396 13.4519L27.3143 13.4329L26.4143 14.6329ZM26.4143 14.6329L25.4644 15.7938L25.4889 15.8139L25.5143 15.8329L26.4143 14.6329ZM19.0365 8.59649L18.0866 9.75742L18.0866 9.75742L19.0365 8.59649ZM17.653 7.79861L17.5783 6.30047L17.5783 6.30047L17.653 7.79861ZM16.3558 8.73019L15.2951 7.66953L15.2951 7.66953L16.3558 8.73019ZM8.73315 16.3528L9.7938 17.4135L9.79381 17.4135L8.73315 16.3528ZM7.80157 17.65L6.30343 17.5753L6.30343 17.5753L7.80157 17.65ZM8.59944 19.0335L9.76038 18.0837L9.76038 18.0837L8.59944 19.0335ZM14.6393 26.4155L13.4783 27.3654L13.4783 27.3654L14.6393 26.4155ZM15.9697 28.8743L14.5838 28.3002L14.5838 28.3002L15.9697 28.8743ZM13.2904 29.6721L13.4396 31.1647L13.4396 31.1647L13.2904 29.6721ZM3.80099 30.621V32.121H3.87581L3.95025 32.1136L3.80099 30.621ZM3.80097 30.621V29.121H3.72616L3.65171 29.1285L3.80097 30.621ZM2.25855 31.0351L3.37073 32.0416L3.37073 32.0416L2.25855 31.0351ZM3.80099 45.3812L3.65173 46.8738L3.65174 46.8738L3.80099 45.3812ZM13.2856 46.3297L13.1363 47.8222L13.1363 47.8222L13.2856 46.3297ZM15.9648 47.1275L17.3507 46.5535L17.3507 46.5535L15.9648 47.1275ZM14.6345 49.5862L13.4735 48.6364L13.4735 48.6364L14.6345 49.5862ZM8.59791 56.9642L7.43698 56.0144L7.43698 56.0144L8.59791 56.9642ZM7.80004 58.3477L6.3019 58.4224L6.3019 58.4224L7.80004 58.3477ZM8.73162 59.6449L9.79228 58.5843L9.79227 58.5843L8.73162 59.6449ZM16.3543 67.2676L17.4149 66.2069L17.4149 66.2069L16.3543 67.2676ZM17.6515 68.1992L17.7262 66.701L17.7262 66.701L17.6515 68.1992ZM19.035 67.4013L19.9848 68.5622L19.9848 68.5622L19.035 67.4013ZM26.4139 61.3639L25.4641 60.203L25.4641 60.203L26.4139 61.3639ZM28.8727 60.0335L29.4467 58.6477L29.4467 58.6477L28.8727 60.0335ZM29.6705 62.7128L31.1631 62.5636L31.1631 62.5636L29.6705 62.7128ZM30.6191 72.199L29.1266 72.3483L29.1266 72.3483L30.6191 72.199ZM31.0332 73.7415L30.0267 74.8536L30.0267 74.8536L31.0332 73.7415ZM44.9652 73.7415L45.9717 74.8536L45.9718 74.8536L44.9652 73.7415ZM45.3793 72.199L46.8719 72.3483L46.8719 72.3483L45.3793 72.199ZM46.3283 62.7095L47.8208 62.8588L47.8208 62.8588L46.3283 62.7095ZM47.1261 60.0302L46.5521 58.6444L46.5521 58.6444L47.1261 60.0302ZM49.5848 61.3606L48.635 62.5215L48.635 62.5215L49.5848 61.3606ZM56.9641 67.3982L56.0143 68.5592L56.0143 68.5592L56.9641 67.3982ZM58.3476 68.1961L58.2729 66.698L58.2729 66.698L58.3476 68.1961ZM68.1991 58.3447L66.7009 58.2699L66.7009 58.27L68.1991 58.3447ZM67.4012 56.9612L66.2402 57.911L66.2402 57.911L67.4012 56.9612ZM61.367 49.5861L62.528 48.6362L62.528 48.6362L61.367 49.5861ZM60.0366 47.1274L58.6508 46.5534L58.6508 46.5534L60.0366 47.1274ZM62.7159 46.3295L62.8652 47.8221L62.8652 47.8221L62.7159 46.3295ZM72.199 45.3812L72.3483 46.8738L72.3483 46.8738L72.199 45.3812ZM73.7415 44.9672L74.8536 45.9737L74.8536 45.9737L73.7415 44.9672ZM73.7415 31.0351L74.8536 30.0286L74.8536 30.0286L73.7415 31.0351ZM72.199 30.621L72.3483 29.1285L72.3483 29.1285L72.199 30.621ZM62.7111 29.6722L62.5618 31.1648L62.5618 31.1648L62.7111 29.6722ZM60.0318 28.8744L58.646 29.4484L58.646 29.4484L60.0318 28.8744ZM61.3622 26.4157L60.2013 25.4658L60.2013 25.4658L61.3622 26.4157ZM67.3997 19.0366L68.5606 19.9864L68.5606 19.9864L67.3997 19.0366ZM68.1975 17.6531L66.6994 17.7278L66.6994 17.7278L68.1975 17.6531ZM67.2659 16.3559L68.3266 15.2952L68.3266 15.2952L67.2659 16.3559ZM59.6433 8.73325L58.5826 9.79391L58.5826 9.79391L59.6433 8.73325ZM58.3461 7.80168L58.2714 9.29982L58.2714 9.29982L58.3461 7.80168ZM56.9626 8.59955L56.0128 7.43862L56.0128 7.43862L56.9626 8.59955ZM49.5845 14.6362L48.6346 13.4753L48.6346 13.4753L49.5845 14.6362ZM47.1258 15.9666L47.6998 14.5808L47.6998 14.5808L47.1258 15.9666ZM46.3279 13.2873L47.8205 13.138L47.8205 13.138L46.3279 13.2873ZM45.9323 44.2384L46.9124 43.103L46.9124 43.103L45.9323 44.2384ZM29.602 44.2384L30.5822 45.3739L30.5822 45.3739L29.602 44.2384ZM43.9587 3.37072C43.8835 3.30266 43.8312 3.22709 43.8004 3.1662C43.7745 3.11513 43.7748 3.0961 43.7861 3.14457C43.7976 3.19433 43.8124 3.27768 43.8302 3.42083C43.848 3.56349 43.8648 3.73093 43.8868 3.95025L46.8719 3.65174C46.8331 3.26367 46.7925 2.82922 46.7085 2.46694C46.6149 2.06294 46.429 1.56018 45.9717 1.14637L43.9587 3.37072ZM43.3892 3.5C43.6097 3.5 43.7779 3.50009 43.9217 3.50359C44.0659 3.50711 44.1503 3.51348 44.2009 3.52001C44.2503 3.52637 44.2314 3.52861 44.178 3.50795C44.1143 3.48331 44.0339 3.43879 43.9587 3.37072L45.9717 1.14637C45.5145 0.732564 44.9957 0.597634 44.5844 0.544623C44.2156 0.497086 43.7792 0.5 43.3892 0.5V3.5ZM32.6092 3.5H43.3892V0.5H32.6092V3.5ZM32.0397 3.37073C31.9645 3.43879 31.8841 3.48331 31.8204 3.50795C31.7671 3.52861 31.7481 3.52637 31.7975 3.52001C31.8482 3.51348 31.9326 3.50711 32.0768 3.50359C32.2205 3.50009 32.3888 3.5 32.6092 3.5V0.5C32.2192 0.5 31.7829 0.497086 31.414 0.544623C31.0027 0.597634 30.4839 0.732565 30.0267 1.14637L32.0397 3.37073ZM32.1117 3.95023C32.1336 3.73092 32.1504 3.56348 32.1682 3.42082C32.1861 3.27767 32.2008 3.19433 32.2124 3.14457C32.2236 3.0961 32.2239 3.11514 32.1981 3.1662C32.1672 3.22709 32.1149 3.30266 32.0397 3.37073L30.0267 1.14637C29.5694 1.56017 29.3836 2.06293 29.2899 2.46693C29.2059 2.82921 29.1654 3.26366 29.1266 3.65171L32.1117 3.95023ZM32.1191 3.80099V3.80097H29.1191V3.80099H32.1191ZM31.1634 13.4332L32.1117 3.95025L29.1266 3.65174L28.1783 13.1347L31.1634 13.4332ZM29.447 17.3491C30.3989 16.9548 30.7286 16.0888 30.8726 15.5163C31.0161 14.9459 31.0868 14.1993 31.1634 13.4332L28.1783 13.1347C28.0915 14.0022 28.0397 14.4807 27.9633 14.7843C27.8874 15.0858 27.8999 14.7427 28.2989 14.5774L29.447 17.3491ZM25.4644 15.7938C26.0603 16.2813 26.6382 16.7593 27.143 17.0611C27.6496 17.3641 28.4952 17.7433 29.447 17.3491L28.299 14.5774C28.698 14.4121 28.9495 14.6459 28.6826 14.4864C28.4139 14.3257 28.0389 14.024 27.3641 13.4719L25.4644 15.7938ZM25.5143 15.8329L25.5143 15.8329L27.3143 13.4329L27.3143 13.4329L25.5143 15.8329ZM18.0866 9.75742L25.4644 15.7938L27.3641 13.4719L19.9863 7.43555L18.0866 9.75742ZM17.7277 9.29675C17.6264 9.3018 17.536 9.28535 17.4711 9.2641C17.4167 9.24629 17.4035 9.23258 17.4457 9.25891C17.4891 9.28594 17.5584 9.33445 17.6723 9.42305C17.7857 9.51135 17.916 9.61785 18.0866 9.75742L19.9863 7.43555C19.6845 7.18859 19.3486 6.91003 19.0331 6.71326C18.6812 6.49382 18.1942 6.26975 17.5783 6.30047L17.7277 9.29675ZM17.4165 9.79085C17.5723 9.63499 17.6914 9.51606 17.7955 9.41691C17.8999 9.31742 17.9641 9.26225 18.0046 9.23104C18.044 9.20064 18.0322 9.2156 17.9798 9.23873C17.9174 9.26633 17.829 9.2917 17.7277 9.29675L17.5783 6.30047C16.9624 6.33119 16.5001 6.6026 16.1718 6.85596C15.8774 7.08316 15.5709 7.39376 15.2951 7.66953L17.4165 9.79085ZM9.79381 17.4135L17.4165 9.79085L15.2951 7.66953L7.67248 15.2922L9.79381 17.4135ZM9.29971 17.7248C9.29466 17.8261 9.26928 17.9144 9.24169 17.9768C9.21856 18.0292 9.2036 18.041 9.234 18.0016C9.26521 17.9612 9.32038 17.897 9.41987 17.7925C9.51902 17.6884 9.63795 17.5693 9.7938 17.4135L7.67249 15.2922C7.39672 15.5679 7.08612 15.8744 6.85892 16.1688C6.60556 16.4972 6.33415 16.9594 6.30343 17.5753L9.29971 17.7248ZM9.76038 18.0837C9.62081 17.9131 9.51431 17.7828 9.42601 17.6693C9.33741 17.5555 9.2889 17.4861 9.26187 17.4428C9.23554 17.4005 9.24925 17.4138 9.26706 17.4682C9.28831 17.533 9.30476 17.6235 9.29971 17.7248L6.30343 17.5753C6.27271 18.1913 6.49678 18.6782 6.71622 19.0301C6.91299 19.3457 7.19155 19.6815 7.43851 19.9834L9.76038 18.0837ZM15.8002 25.4657L9.76038 18.0837L7.43851 19.9834L13.4783 27.3654L15.8002 25.4657ZM17.3555 29.4483C17.7498 28.4964 17.3705 27.6509 17.0676 27.1442C16.7657 26.6394 16.2877 26.0615 15.8002 25.4657L13.4783 27.3654C14.0304 28.0401 14.3321 28.4152 14.4928 28.6839C14.6524 28.9507 14.4186 28.6993 14.5838 28.3002L17.3555 29.4483ZM13.4396 31.1647C14.2057 31.088 14.9523 31.0174 15.5227 30.8739C16.0952 30.7299 16.9612 30.4001 17.3555 29.4483L14.5838 28.3002C14.7491 27.9012 15.0923 27.8887 14.7908 27.9645C14.4871 28.0409 14.0086 28.0928 13.1411 28.1795L13.4396 31.1647ZM3.95025 32.1136L13.4396 31.1647L13.1411 28.1795L3.65174 29.1285L3.95025 32.1136ZM3.80097 32.121H3.80099V29.121H3.80097V32.121ZM3.37073 32.0416C3.30266 32.1168 3.22709 32.1691 3.1662 32.2C3.11514 32.2259 3.0961 32.2255 3.14457 32.2143C3.19433 32.2027 3.27767 32.188 3.42082 32.1701C3.56348 32.1524 3.73092 32.1355 3.95023 32.1136L3.65171 29.1285C3.26366 29.1673 2.82921 29.2078 2.46693 29.2918C2.06293 29.3855 1.56017 29.5714 1.14637 30.0286L3.37073 32.0416ZM3.5 32.6111C3.5 32.3907 3.50009 32.2224 3.50359 32.0787C3.50711 31.9345 3.51348 31.8501 3.52001 31.7994C3.52637 31.7501 3.52861 31.769 3.50795 31.8224C3.48331 31.886 3.43879 31.9664 3.37073 32.0416L1.14637 30.0286C0.732564 30.4859 0.597634 31.0046 0.544623 31.4159C0.497086 31.7848 0.5 32.2211 0.5 32.6111H3.5ZM3.5 43.3912V32.6111H0.5V43.3912H3.5ZM3.37072 43.9606C3.43879 44.0359 3.48331 44.1163 3.50795 44.1799C3.52861 44.2333 3.52637 44.2522 3.52001 44.2029C3.51348 44.1522 3.50711 44.0678 3.50359 43.9236C3.50009 43.7799 3.5 43.6116 3.5 43.3912H0.5C0.5 43.7812 0.497086 44.2175 0.544623 44.5863C0.597634 44.9976 0.732564 45.5164 1.14637 45.9737L3.37072 43.9606ZM3.95025 43.8887C3.73093 43.8667 3.56349 43.8499 3.42083 43.8321C3.27768 43.8143 3.19433 43.7995 3.14457 43.788C3.0961 43.7768 3.11513 43.7764 3.1662 43.8023C3.22709 43.8331 3.30266 43.8854 3.37072 43.9606L1.14637 45.9737C1.56018 46.4309 2.06294 46.6168 2.46693 46.7105C2.82922 46.7945 3.26367 46.835 3.65173 46.8738L3.95025 43.8887ZM13.4348 44.8371L3.95025 43.8887L3.65174 46.8738L13.1363 47.8222L13.4348 44.8371ZM17.3507 46.5535C16.9564 45.6017 16.0904 45.2719 15.5179 45.1279C14.9475 44.9844 14.2009 44.9137 13.4348 44.8371L13.1363 47.8222C14.0038 47.909 14.4823 47.9609 14.786 48.0372C15.0875 48.1131 14.7443 48.1006 14.579 47.7016L17.3507 46.5535ZM15.7954 50.5361C16.2829 49.9402 16.7609 49.3624 17.0628 48.8576C17.3657 48.3509 17.7449 47.5054 17.3507 46.5535L14.579 47.7016C14.4137 47.3025 14.6475 47.0511 14.488 47.3179C14.3273 47.5866 14.0256 47.9616 13.4735 48.6364L15.7954 50.5361ZM9.75885 57.9141L15.7954 50.5361L13.4735 48.6364L7.43698 56.0144L9.75885 57.9141ZM9.29818 58.273C9.30323 58.3743 9.28678 58.4647 9.26553 58.5296C9.24772 58.584 9.23401 58.5972 9.26034 58.555C9.28737 58.5117 9.33588 58.4423 9.42448 58.3285C9.51278 58.215 9.61928 58.0847 9.75885 57.9141L7.43698 56.0144C7.19002 56.3162 6.91146 56.6521 6.71469 56.9677C6.49525 57.3196 6.27118 57.8065 6.3019 58.4224L9.29818 58.273ZM9.79227 58.5843C9.63642 58.4284 9.51749 58.3094 9.41834 58.2053C9.31885 58.1008 9.26368 58.0366 9.23247 57.9962C9.20207 57.9568 9.21703 57.9686 9.24016 58.0209C9.26776 58.0834 9.29313 58.1717 9.29818 58.273L6.3019 58.4224C6.33262 59.0384 6.60403 59.5006 6.85739 59.8289C7.08459 60.1234 7.39519 60.4298 7.67096 60.7056L9.79227 58.5843ZM17.4149 66.2069L9.79228 58.5843L7.67095 60.7056L15.2936 68.3282L17.4149 66.2069ZM17.7262 66.701C17.8275 66.7061 17.9158 66.7314 17.9783 66.759C18.0306 66.7822 18.0424 66.7971 18.003 66.7667C17.9626 66.7355 17.8984 66.6804 17.7939 66.5809C17.6898 66.4817 17.5708 66.3628 17.4149 66.2069L15.2936 68.3282C15.5694 68.604 15.8758 68.9146 16.1703 69.1418C16.4986 69.3952 16.9608 69.6666 17.5768 69.6973L17.7262 66.701ZM18.0851 66.2404C17.9145 66.3799 17.7842 66.4864 17.6708 66.5747C17.5569 66.6633 17.4876 66.7118 17.4442 66.7389C17.402 66.7652 17.4152 66.7515 17.4696 66.7337C17.5345 66.7124 17.6249 66.696 17.7262 66.701L17.5768 69.6973C18.1927 69.728 18.6796 69.5039 19.0315 69.2845C19.3471 69.0877 19.683 68.8092 19.9848 68.5622L18.0851 66.2404ZM25.4641 60.203L18.0851 66.2404L19.9848 68.5622L27.3638 62.5249L25.4641 60.203ZM29.4467 58.6477C28.4948 58.2535 27.6493 58.6327 27.1426 58.9356C26.6378 59.2375 26.06 59.7155 25.4641 60.203L27.3638 62.5249C28.0385 61.9728 28.4136 61.6711 28.6823 61.5104C28.9491 61.3508 28.6977 61.5846 28.2986 61.4194L29.4467 58.6477ZM31.1631 62.5636C31.0865 61.7975 31.0158 61.0509 30.8723 60.4805C30.7283 59.908 30.3985 59.042 29.4467 58.6477L28.2986 61.4194C27.8996 61.2541 27.8871 60.9109 27.963 61.2124C28.0393 61.5161 28.0912 61.9946 28.1779 62.8621L31.1631 62.5636ZM32.1117 72.0497L31.1631 62.5636L28.1779 62.8621L29.1266 72.3483L32.1117 72.0497ZM32.0397 72.6293C32.1149 72.6973 32.1672 72.7729 32.1981 72.8338C32.2239 72.8849 32.2236 72.9039 32.2124 72.8554C32.2008 72.8057 32.1861 72.7223 32.1682 72.5792C32.1504 72.4365 32.1336 72.2691 32.1117 72.0497L29.1266 72.3483C29.1654 72.7363 29.2059 73.1708 29.2899 73.5331C29.3836 73.9371 29.5694 74.4398 30.0267 74.8536L32.0397 72.6293ZM32.6092 72.5C32.3888 72.5 32.2205 72.4999 32.0768 72.4964C31.9326 72.4929 31.8482 72.4865 31.7975 72.48C31.7481 72.4736 31.767 72.4714 31.8204 72.492C31.8841 72.5167 31.9645 72.5612 32.0397 72.6293L30.0267 74.8536C30.4839 75.2674 31.0027 75.4024 31.414 75.4554C31.7829 75.5029 32.2192 75.5 32.6092 75.5V72.5ZM43.3892 72.5H32.6092V75.5H43.3892V72.5ZM43.9587 72.6293C44.0339 72.5612 44.1143 72.5167 44.178 72.492C44.2314 72.4714 44.2503 72.4736 44.2009 72.48C44.1503 72.4865 44.0659 72.4929 43.9217 72.4964C43.7779 72.4999 43.6097 72.5 43.3892 72.5V75.5C43.7792 75.5 44.2156 75.5029 44.5844 75.4554C44.9957 75.4024 45.5145 75.2674 45.9717 74.8536L43.9587 72.6293ZM43.8868 72.0497C43.8648 72.2691 43.848 72.4365 43.8302 72.5792C43.8124 72.7223 43.7976 72.8057 43.7861 72.8554C43.7748 72.9039 43.7745 72.8849 43.8004 72.8338C43.8312 72.7729 43.8835 72.6973 43.9587 72.6293L45.9718 74.8536C46.429 74.4398 46.6149 73.9371 46.7085 73.5331C46.7925 73.1708 46.8331 72.7363 46.8719 72.3483L43.8868 72.0497ZM44.8357 62.5602L43.8868 72.0497L46.8719 72.3483L47.8208 62.8588L44.8357 62.5602ZM46.5521 58.6444C45.6002 59.0387 45.2705 59.9047 45.1265 60.4772C44.983 61.0476 44.9123 61.7942 44.8357 62.5602L47.8208 62.8588C47.9076 61.9913 47.9594 61.5127 48.0358 61.2091C48.1117 60.9076 48.0992 61.2507 47.7001 61.416L46.5521 58.6444ZM50.5347 60.1997C49.9388 59.7121 49.3609 59.2342 48.8561 58.9323C48.3495 58.6293 47.5039 58.2501 46.5521 58.6444L47.7001 61.416C47.3011 61.5813 47.0496 61.3475 47.3165 61.5071C47.5852 61.6678 47.9602 61.9695 48.635 62.5215L50.5347 60.1997ZM57.914 66.2373L50.5347 60.1997L48.635 62.5215L56.0143 68.5592L57.914 66.2373ZM58.2729 66.698C58.3742 66.6929 58.4646 66.7094 58.5295 66.7306C58.5839 66.7484 58.5971 66.7621 58.5549 66.7358C58.5115 66.7088 58.4422 66.6603 58.3283 66.5717C58.2149 66.4833 58.0846 66.3769 57.914 66.2373L56.0143 68.5592C56.3161 68.8061 56.652 69.0847 56.9676 69.2815C57.3195 69.5009 57.8064 69.725 58.4223 69.6942L58.2729 66.698ZM58.5842 66.2039C58.4283 66.3597 58.3093 66.4786 58.2052 66.5778C58.1007 66.6773 58.0365 66.7325 57.9961 66.7637C57.9567 66.7941 57.9685 66.7791 58.0208 66.756C58.0833 66.7284 58.1716 66.703 58.2729 66.698L58.4223 69.6942C59.0383 69.6635 59.5005 69.3921 59.8288 69.1387C60.1233 68.9115 60.4297 68.6009 60.7055 68.3252L58.5842 66.2039ZM66.2068 58.5812L58.5842 66.2039L60.7055 68.3252L68.3281 60.7025L66.2068 58.5812ZM66.7009 58.27C66.706 58.1686 66.7313 58.0803 66.7589 58.0179C66.7821 57.9655 66.797 57.9537 66.7666 57.9931C66.7354 58.0335 66.6802 58.0977 66.5808 58.2022C66.4816 58.3063 66.3627 58.4254 66.2068 58.5812L68.3281 60.7025C68.6039 60.4268 68.9145 60.1203 69.1417 59.8259C69.3951 59.4975 69.6665 59.0353 69.6972 58.4194L66.7009 58.27ZM66.2402 57.911C66.3798 58.0816 66.4863 58.2119 66.5746 58.3254C66.6632 58.4392 66.7117 58.5086 66.7388 58.5519C66.7651 58.5942 66.7514 58.5809 66.7336 58.5265C66.7123 58.4617 66.6959 58.3712 66.7009 58.2699L69.6972 58.4194C69.7279 57.8035 69.5038 57.3165 69.2844 56.9646C69.0876 56.649 68.8091 56.3132 68.5621 56.0113L66.2402 57.911ZM60.2061 50.536L66.2402 57.911L68.5621 56.0113L62.528 48.6362L60.2061 50.536ZM58.6508 46.5534C58.2566 47.5052 58.6358 48.3507 58.9387 48.8574C59.2406 49.3622 59.7186 49.9401 60.2061 50.536L62.528 48.6362C61.9759 47.9615 61.6742 47.5864 61.5135 47.3177C61.3539 47.0509 61.5877 47.3024 61.4225 47.7014L58.6508 46.5534ZM62.5667 44.837C61.8006 44.9136 61.054 44.9842 60.4836 45.1277C59.9111 45.2718 59.0451 45.6015 58.6508 46.5534L61.4225 47.7014C61.2572 48.1004 60.914 48.1129 61.2155 48.0371C61.5192 47.9607 61.9977 47.9088 62.8652 47.8221L62.5667 44.837ZM72.0497 43.8887L62.5667 44.837L62.8652 47.8221L72.3483 46.8738L72.0497 43.8887ZM72.6293 43.9606C72.6973 43.8854 72.7729 43.8331 72.8338 43.8023C72.8849 43.7764 72.9039 43.7768 72.8554 43.788C72.8057 43.7995 72.7223 43.8143 72.5792 43.8321C72.4365 43.8499 72.2691 43.8667 72.0497 43.8887L72.3483 46.8738C72.7363 46.835 73.1708 46.7945 73.5331 46.7105C73.9371 46.6168 74.4398 46.4309 74.8536 45.9737L72.6293 43.9606ZM72.5 43.3912C72.5 43.6116 72.4999 43.7799 72.4964 43.9236C72.4929 44.0678 72.4865 44.1522 72.48 44.2029C72.4736 44.2522 72.4714 44.2333 72.492 44.1799C72.5167 44.1163 72.5612 44.0359 72.6293 43.9607L74.8536 45.9737C75.2674 45.5164 75.4024 44.9976 75.4554 44.5863C75.5029 44.2175 75.5 43.7812 75.5 43.3912H72.5ZM72.5 32.6111V43.3912H75.5V32.6111H72.5ZM72.6293 32.0416C72.5612 31.9664 72.5167 31.886 72.492 31.8224C72.4714 31.769 72.4736 31.7501 72.48 31.7994C72.4865 31.8501 72.4929 31.9345 72.4964 32.0787C72.4999 32.2224 72.5 32.3907 72.5 32.6111H75.5C75.5 32.2211 75.5029 31.7848 75.4554 31.4159C75.4024 31.0046 75.2674 30.4859 74.8536 30.0286L72.6293 32.0416ZM72.0497 32.1136C72.2691 32.1355 72.4365 32.1524 72.5792 32.1701C72.7223 32.188 72.8057 32.2027 72.8554 32.2143C72.9039 32.2255 72.8849 32.2259 72.8338 32.2C72.7729 32.1691 72.6973 32.1168 72.6293 32.0416L74.8536 30.0286C74.4398 29.5714 73.9371 29.3855 73.5331 29.2918C73.1708 29.2078 72.7363 29.1673 72.3483 29.1285L72.0497 32.1136ZM62.5618 31.1648L72.0497 32.1136L72.3483 29.1285L62.8604 28.1797L62.5618 31.1648ZM58.646 29.4484C59.0403 30.4003 59.9063 30.73 60.4788 30.874C61.0492 31.0175 61.7958 31.0882 62.5618 31.1648L62.8604 28.1797C61.9929 28.0929 61.5143 28.0411 61.2107 27.9647C60.9092 27.8888 61.2523 27.9013 61.4176 28.3004L58.646 29.4484ZM60.2013 25.4658C59.7137 26.0617 59.2358 26.6396 58.9339 27.1444C58.6309 27.6511 58.2517 28.4966 58.646 29.4484L61.4176 28.3004C61.5829 28.6994 61.3491 28.9509 61.5087 28.6841C61.6694 28.4153 61.9711 28.0403 62.5231 27.3656L60.2013 25.4658ZM66.2387 18.0867L60.2013 25.4658L62.5231 27.3656L68.5606 19.9864L66.2387 18.0867ZM66.6994 17.7278C66.6943 17.6265 66.7108 17.5361 66.732 17.4712C66.7498 17.4168 66.7635 17.4036 66.7372 17.4458C66.7102 17.4892 66.6617 17.5585 66.5731 17.6724C66.4848 17.7858 66.3783 17.9161 66.2387 18.0867L68.5606 19.9864C68.8075 19.6846 69.0861 19.3487 69.2829 19.0332C69.5023 18.6813 69.7264 18.1943 69.6957 17.5784L66.6994 17.7278ZM66.2053 17.4166C66.3611 17.5724 66.4801 17.6915 66.5792 17.7956C66.6787 17.9 66.7339 17.9642 66.7651 18.0047C66.7955 18.0441 66.7805 18.0323 66.7574 17.9799C66.7298 17.9175 66.7044 17.8291 66.6994 17.7278L69.6957 17.5784C69.6649 16.9625 69.3935 16.5002 69.1402 16.1719C68.913 15.8775 68.6024 15.571 68.3266 15.2952L66.2053 17.4166ZM58.5826 9.79391L66.2053 17.4166L68.3266 15.2952L60.704 7.67259L58.5826 9.79391ZM58.2714 9.29982C58.1701 9.29476 58.0817 9.26939 58.0193 9.2418C57.9669 9.21866 57.9551 9.20371 57.9945 9.23411C58.035 9.26532 58.0992 9.32049 58.2036 9.41998C58.3077 9.51913 58.4268 9.63806 58.5826 9.79391L60.704 7.67259C60.4282 7.39682 60.1217 7.08623 59.8273 6.85903C59.499 6.60567 59.0367 6.33426 58.4208 6.30354L58.2714 9.29982ZM57.9125 9.76049C58.0831 9.62091 58.2134 9.51442 58.3268 9.42612C58.4407 9.33752 58.51 9.28901 58.5534 9.26198C58.5956 9.23565 58.5824 9.24936 58.528 9.26717C58.4631 9.28841 58.3727 9.30487 58.2714 9.29982L58.4208 6.30354C57.8049 6.27282 57.3179 6.49689 56.966 6.71632C56.6505 6.9131 56.3146 7.19165 56.0128 7.43862L57.9125 9.76049ZM50.5344 15.7971L57.9125 9.76049L56.0128 7.43862L48.6346 13.4753L50.5344 15.7971ZM46.5518 17.3524C47.5036 17.7467 48.3491 17.3675 48.8558 17.0645C49.3606 16.7626 49.9385 16.2846 50.5344 15.7971L48.6346 13.4753C47.9599 14.0273 47.5848 14.329 47.3161 14.4897C47.0493 14.6493 47.3008 14.4155 47.6998 14.5808L46.5518 17.3524ZM44.8354 13.4365C44.912 14.2026 44.9827 14.9492 45.1261 15.5196C45.2702 16.0921 45.5999 16.9581 46.5518 17.3524L47.6998 14.5808C48.0989 14.746 48.1113 15.0892 48.0355 14.7877C47.9591 14.4841 47.9072 14.0055 47.8205 13.138L44.8354 13.4365ZM43.8868 3.95025L44.8354 13.4365L47.8205 13.138L46.8719 3.65174L43.8868 3.95025ZM44.0915 28.2665C44.0915 32.0678 41.0099 35.1494 37.2086 35.1494V38.1494C42.6668 38.1494 47.0915 33.7246 47.0915 28.2665H44.0915ZM37.2086 21.3836C41.0099 21.3836 44.0915 24.4651 44.0915 28.2665H47.0915C47.0915 22.8083 42.6668 18.3836 37.2086 18.3836V21.3836ZM30.3257 28.2665C30.3257 24.4651 33.4073 21.3836 37.2086 21.3836V18.3836C31.7504 18.3836 27.3257 22.8083 27.3257 28.2665H30.3257ZM37.2086 35.1494C33.4073 35.1494 30.3257 32.0678 30.3257 28.2665H27.3257C27.3257 33.7246 31.7504 38.1494 37.2086 38.1494V35.1494ZM52.182 51.9566C51.3499 48.4631 49.5094 45.3448 46.9124 43.103L44.9521 45.3739C47.04 47.1762 48.5673 49.7282 49.2636 52.6517L52.182 51.9566ZM46.9124 43.103C44.3118 40.858 41.098 39.6203 37.7672 39.6203V42.6203C40.3415 42.6203 42.8678 43.5746 44.9521 45.3739L46.9124 43.103ZM37.7672 39.6203C34.4363 39.6203 31.2225 40.858 28.6219 43.103L30.5822 45.3739C32.6665 43.5746 35.1929 42.6203 37.7672 42.6203V39.6203ZM28.6219 43.103C26.0249 45.3448 24.1844 48.4631 23.3523 51.9566L26.2707 52.6517C26.967 49.7282 28.4943 47.1762 30.5822 45.3739L28.6219 43.103Z" fill="#60872F"/>
</svg>
