<svg width="171" height="171" viewBox="0 0 171 171" fill="none" xmlns="http://www.w3.org/2000/svg">
<path fill-rule="evenodd" clip-rule="evenodd" d="M149.625 85.5C149.625 120.915 120.915 149.625 85.5 149.625C50.0847 149.625 21.375 120.915 21.375 85.5C21.375 50.0847 50.0847 21.375 85.5 21.375C120.915 21.375 149.625 50.0847 149.625 85.5ZM85.5 127.125C82.1863 127.125 79.5 124.439 79.5 121.125V91.5H49.875C46.5613 91.5 43.875 88.8137 43.875 85.5C43.875 82.1863 46.5613 79.5 49.875 79.5H79.5V49.875C79.5 46.5613 82.1863 43.875 85.5 43.875C88.8137 43.875 91.5 46.5613 91.5 49.875V79.5H121.125C124.439 79.5 127.125 82.1863 127.125 85.5C127.125 88.8137 124.439 91.5 121.125 91.5H91.5V121.125C91.5 124.439 88.8137 127.125 85.5 127.125Z" fill="#736D6D"/>
</svg>
