<svg width="361" height="361" viewBox="0 0 361 361" fill="none" xmlns="http://www.w3.org/2000/svg">
<path fill-rule="evenodd" clip-rule="evenodd" d="M180.5 315.875C255.266 315.875 315.875 255.266 315.875 180.5C315.875 151.8 306.944 125.185 291.709 103.285L174.99 232.973C170.487 237.976 162.911 238.715 157.527 234.676L98.0917 190.1C92.7897 186.124 91.7152 178.602 95.6917 173.3C99.6681 167.998 107.19 166.924 112.492 170.9L163.88 209.441L276.148 84.6986C251.656 60.2457 217.844 45.125 180.5 45.125C105.734 45.125 45.125 105.734 45.125 180.5C45.125 255.266 105.734 315.875 180.5 315.875Z" fill="#698263"/>
</svg>
