<svg width="30" height="32" viewBox="0 0 30 32" fill="none" xmlns="http://www.w3.org/2000/svg">
<path d="M29.3709 0H0.629379C0.281962 0 0 0.300756 0 0.671331V31.3283C0 31.6989 0.281962 31.9997 0.629379 31.9997H15.8997V21.307H12.677C12.3985 21.307 12.1728 21.0664 12.1728 20.7693V16.4345C12.1728 16.1375 12.3985 15.8964 12.677 15.8964H15.9V12.9047C15.9 8.9626 18.2271 6.41557 21.8285 6.41557L25.0345 6.42095C25.3124 6.42128 25.538 6.66195 25.538 6.95868V10.9836C25.538 11.2807 25.3124 11.5214 25.0339 11.5214L22.8742 11.5224C21.386 11.5224 21.1135 12.1414 21.1135 13.3602V15.8964H24.8831C25.0169 15.8964 25.145 15.9532 25.2397 16.0542C25.3341 16.1552 25.3873 16.2919 25.3873 16.4345L25.386 20.7696C25.386 21.0667 25.1604 21.3077 24.8819 21.3077H21.1132V32H29.3706C29.718 32 30 31.6992 30 31.3287V0.671331C30.0003 0.300421 29.7187 0 29.3709 0Z" fill="#D9D9D9"/>
</svg>
