<svg width="69" height="69" viewBox="0 0 69 69" fill="none" xmlns="http://www.w3.org/2000/svg">
<circle r="34.5" transform="matrix(0 -1 -1 0 34.5 34.5)" fill="#172A38"/>
<path d="M18.083 33.8351C18.083 30.5538 18.083 28.9132 18.7463 27.4711C19.4096 26.029 20.6552 24.9613 23.1465 22.8259L25.5632 20.7544C30.0662 16.8947 32.3177 14.9648 34.9997 14.9648C37.6816 14.9648 39.9331 16.8947 44.4361 20.7544L46.8528 22.8259C49.3441 24.9613 50.5898 26.029 51.2531 27.4711C51.9163 28.9132 51.9163 30.5538 51.9163 33.8351V44.0827C51.9163 48.6396 51.9163 50.9181 50.5007 52.3337C49.085 53.7494 46.8066 53.7494 42.2497 53.7494H27.7497C23.1928 53.7494 20.9143 53.7494 19.4987 52.3337C18.083 50.9181 18.083 48.6396 18.083 44.0827V33.8351Z" stroke="#EFE7E7" stroke-width="4"/>
<path d="M41.0413 53.75V40.25C41.0413 39.6977 40.5936 39.25 40.0413 39.25H29.958C29.4057 39.25 28.958 39.6977 28.958 40.25V53.75" stroke="#EFE7E7" stroke-width="3" stroke-linecap="round" stroke-linejoin="round"/>
</svg>
