<svg width="33" height="34" viewBox="0 0 33 34" fill="none" xmlns="http://www.w3.org/2000/svg">
<path d="M16.5 9.4375C15.0043 9.4375 13.5421 9.88103 12.2985 10.712C11.0549 11.543 10.0855 12.7241 9.51316 14.106C8.94077 15.4878 8.79101 17.0084 9.08281 18.4754C9.37461 19.9424 10.0949 21.2899 11.1525 22.3475C12.2101 23.4051 13.5576 24.1254 15.0246 24.4172C16.4916 24.709 18.0122 24.5592 19.394 23.9868C20.7759 23.4144 21.957 22.4451 22.788 21.2015C23.619 19.9579 24.0625 18.4957 24.0625 17C24.0602 14.995 23.2627 13.0728 21.845 11.655C20.4272 10.2373 18.505 9.43976 16.5 9.4375ZM16.5 23.1875C15.2762 23.1875 14.0799 22.8246 13.0624 22.1447C12.0449 21.4648 11.2518 20.4985 10.7835 19.3679C10.3152 18.2372 10.1926 16.9931 10.4314 15.7929C10.6701 14.5926 11.2594 13.4901 12.1248 12.6248C12.9901 11.7594 14.0926 11.1701 15.2929 10.9314C16.4931 10.6926 17.7372 10.8152 18.8679 11.2835C19.9985 11.7518 20.9648 12.5449 21.6447 13.5624C22.3246 14.5799 22.6875 15.7762 22.6875 17C22.6857 18.6405 22.0332 20.2132 20.8732 21.3732C19.7132 22.5332 18.1405 23.1857 16.5 23.1875ZM24.0625 0.5H8.9375C6.56795 0.502684 4.29622 1.44517 2.6207 3.1207C0.945173 4.79622 0.00268396 7.06795 0 9.4375V24.5625C0.00268396 26.932 0.945173 29.2038 2.6207 30.8793C4.29622 32.5548 6.56795 33.4973 8.9375 33.5H24.0625C26.432 33.4973 28.7038 32.5548 30.3793 30.8793C32.0548 29.2038 32.9973 26.932 33 24.5625V9.4375C32.9973 7.06795 32.0548 4.79622 30.3793 3.1207C28.7038 1.44517 26.432 0.502684 24.0625 0.5ZM31.625 24.5625C31.6227 26.5675 30.8252 28.4897 29.4075 29.9075C27.9897 31.3252 26.0675 32.1227 24.0625 32.125H8.9375C6.9325 32.1227 5.01026 31.3252 3.59251 29.9075C2.17475 28.4897 1.37726 26.5675 1.375 24.5625V9.4375C1.37726 7.4325 2.17475 5.51026 3.59251 4.09251C5.01026 2.67475 6.9325 1.87726 8.9375 1.875H24.0625C26.0675 1.87726 27.9897 2.67475 29.4075 4.09251C30.8252 5.51026 31.6227 7.4325 31.625 9.4375V24.5625ZM26.8125 8.0625C26.8125 8.33445 26.7319 8.60029 26.5808 8.82641C26.4297 9.05253 26.2149 9.22876 25.9637 9.33283C25.7124 9.4369 25.436 9.46413 25.1693 9.41108C24.9025 9.35803 24.6575 9.22707 24.4652 9.03477C24.2729 8.84247 24.142 8.59747 24.0889 8.33075C24.0359 8.06403 24.0631 7.78756 24.1672 7.53631C24.2712 7.28506 24.4475 7.07032 24.6736 6.91923C24.8997 6.76814 25.1656 6.6875 25.4375 6.6875C25.802 6.68792 26.1515 6.83292 26.4093 7.09069C26.6671 7.34846 26.8121 7.69796 26.8125 8.0625Z" fill="#D9D9D9"/>
</svg>
