<svg width="46" height="45" viewBox="0 0 46 45" fill="none" xmlns="http://www.w3.org/2000/svg">
<path fill-rule="evenodd" clip-rule="evenodd" d="M6.92157 6.79657C5.75 7.96815 5.75 9.85376 5.75 13.625V31.375C5.75 35.1462 5.75 37.0319 6.92157 38.2034C8.09315 39.375 9.97876 39.375 13.75 39.375H32.25C36.0212 39.375 37.9069 39.375 39.0784 38.2034C40.25 37.0319 40.25 35.1462 40.25 31.375V13.625C40.25 9.85376 40.25 7.96815 39.0784 6.79657C37.9069 5.625 36.0212 5.625 32.25 5.625H13.75C9.97876 5.625 8.09315 5.625 6.92157 6.79657ZM22 13.125V21.5L13.4167 21.5V23.5H22V31.875H24V23.5H32.5833V21.5H24V13.125H22Z" fill="#487D3B"/>
</svg>
