<svg width="72" height="72" viewBox="0 0 72 72" fill="none" xmlns="http://www.w3.org/2000/svg">
<path fill-rule="evenodd" clip-rule="evenodd" d="M53.621 9.06664L21.9314 4.08686C18.7108 3.58076 17.1005 3.32772 16.0503 4.22584C15 5.12396 15 6.75401 15 10.0141V34.4989H35.8791L25.8287 21.9359L28.1713 20.0618L40.1713 35.0618L40.9209 35.9989L40.1713 36.9359L28.1713 51.9359L25.8287 50.0618L35.8791 37.4989H15V61.9811C15 65.2413 15 66.8713 16.0503 67.7694C17.1005 68.6675 18.7108 68.4145 21.9314 67.9084L53.6209 62.9286C55.2337 62.6752 56.0401 62.5485 56.52 61.9872C57 61.4259 57 60.6096 57 58.9771V13.0181C57 11.3856 57 10.5694 56.52 10.0081C56.0401 9.44678 55.2337 9.32007 53.621 9.06664Z" fill="#60872F"/>
</svg>
