<svg width="34" height="32" viewBox="0 0 34 32" fill="none" xmlns="http://www.w3.org/2000/svg">
<rect width="34" height="32" rx="4" fill="#D9D9D9"/>
<path d="M28.4788 10.2572C28.1175 10.4174 27.746 10.5527 27.3664 10.6625C27.8158 10.1543 28.1584 9.55628 28.3676 8.90189C28.4145 8.75521 28.3659 8.59466 28.2453 8.49873C28.1249 8.40272 27.9576 8.39122 27.825 8.46979C27.0189 8.94789 26.1492 9.29148 25.2373 9.4924C24.3187 8.59481 23.0711 8.08398 21.7813 8.08398C19.0587 8.08398 16.8438 10.2989 16.8438 13.0213C16.8438 13.2358 16.8574 13.449 16.8842 13.6593C13.5058 13.3626 10.365 11.7021 8.20816 9.05644C8.1313 8.96214 8.01289 8.91132 7.89165 8.92104C7.77035 8.93053 7.66136 8.99894 7.60007 9.10407C7.16263 9.85469 6.93137 10.7132 6.93137 11.5867C6.93137 12.7764 7.35613 13.9051 8.10644 14.7871C7.8783 14.7081 7.65691 14.6094 7.4456 14.4921C7.33216 14.4289 7.19372 14.4299 7.08102 14.4945C6.96824 14.5592 6.89754 14.678 6.89457 14.8079C6.89405 14.8298 6.89405 14.8517 6.89405 14.8739C6.89405 16.6497 7.84981 18.2485 9.31105 19.1199C9.18552 19.1074 9.06005 19.0892 8.93541 19.0654C8.80691 19.0408 8.67477 19.0858 8.58811 19.1839C8.5013 19.2818 8.47259 19.4183 8.51258 19.543C9.05345 21.2316 10.446 22.4737 12.1294 22.8524C10.7332 23.7269 9.13647 24.1849 7.46029 24.1849C7.11054 24.1849 6.75879 24.1644 6.41454 24.1237C6.24352 24.1033 6.08 24.2043 6.02175 24.3669C5.96351 24.5297 6.02524 24.7111 6.17074 24.8043C8.32405 26.185 10.8139 26.9148 13.371 26.9148C18.3979 26.9148 21.5426 24.5443 23.2954 22.5557C25.4812 20.076 26.7347 16.7939 26.7347 13.551C26.7347 13.4155 26.7327 13.2787 26.7285 13.1424C27.5909 12.4926 28.3333 11.7063 28.9375 10.8026C29.0292 10.6653 29.0193 10.4839 28.913 10.3576C28.8068 10.2311 28.6299 10.1903 28.4788 10.2572Z" fill="#343D43"/>
</svg>
