<svg width="144" height="144" viewBox="0 0 144 144" fill="none" xmlns="http://www.w3.org/2000/svg">
<path d="M12 72C12 56.18 12 48.27 14.0563 41.8618C18.2958 28.65 28.65 18.2958 41.8618 14.0563C48.27 12 56.18 12 72 12C87.82 12 95.73 12 102.138 14.0563C115.35 18.2958 125.704 28.65 129.944 41.8618C132 48.27 132 56.18 132 72C132 87.82 132 95.73 129.944 102.138C125.704 115.35 115.35 125.704 102.138 129.944C95.73 132 87.82 132 72 132C56.18 132 48.27 132 41.8618 129.944C28.65 125.704 18.2958 115.35 14.0563 102.138C12 95.73 12 87.82 12 72Z" fill="#EFE7E7"/>
<path d="M41.8618 129.944L40.334 134.705L41.8618 129.944ZM129.944 102.138L125.183 100.611L129.944 102.138ZM102.138 129.944L100.611 125.183L102.138 129.944ZM102.138 14.0563L100.611 18.8172L102.138 14.0563ZM129.944 41.8618L134.705 40.334L129.944 41.8618ZM72 127C55.7955 127 48.8647 126.94 43.3895 125.183L40.334 134.705C47.6752 137.06 56.5644 137 72 137V127ZM7 72C7 87.4356 6.93973 96.3248 9.29541 103.666L18.8172 100.611C17.0603 95.1353 17 88.2044 17 72H7ZM43.3895 125.183C31.7139 121.436 22.5637 112.286 18.8172 100.611L9.29541 103.666C14.0278 118.414 25.586 129.972 40.334 134.705L43.3895 125.183ZM127 72C127 88.2044 126.94 95.1353 125.183 100.611L134.705 103.666C137.06 96.3248 137 87.4356 137 72H127ZM72 137C87.4356 137 96.3248 137.06 103.666 134.705L100.611 125.183C95.1353 126.94 88.2044 127 72 127V137ZM125.183 100.611C121.436 112.286 112.286 121.436 100.611 125.183L103.666 134.705C118.414 129.972 129.972 118.414 134.705 103.666L125.183 100.611ZM72 17C88.2044 17 95.1353 17.0603 100.611 18.8172L103.666 9.29541C96.3248 6.93973 87.4356 7 72 7V17ZM137 72C137 56.5644 137.06 47.6752 134.705 40.334L125.183 43.3895C126.94 48.8647 127 55.7955 127 72H137ZM100.611 18.8172C112.286 22.5637 121.436 31.7139 125.183 43.3895L134.705 40.334C129.972 25.586 118.414 14.0278 103.666 9.29541L100.611 18.8172ZM72 7C56.5644 7 47.6752 6.93973 40.334 9.29541L43.3895 18.8172C48.8647 17.0603 55.7955 17 72 17V7ZM17 72C17 55.7955 17.0603 48.8647 18.8172 43.3895L9.29541 40.334C6.93973 47.6752 7 56.5644 7 72H17ZM40.334 9.29541C25.586 14.0278 14.0278 25.586 9.29541 40.334L18.8172 43.3895C22.5637 31.7139 31.7139 22.5637 43.3895 18.8172L40.334 9.29541Z" fill="#60872F"/>
<path d="M106.773 114.018C104.722 105.406 100.203 97.7966 93.9154 92.3692C87.6282 86.9418 79.9248 84 72 84C64.0752 84 56.3718 86.9418 50.0846 92.3692C43.7974 97.7966 39.2778 105.406 37.2267 114.018" stroke="#60872F" stroke-width="7" stroke-linecap="round"/>
<circle cx="70.5" cy="49.5" r="22.5" stroke="#60872F" stroke-width="7" stroke-linecap="round"/>
</svg>
